<?xml version="1.0" encoding="UTF-8"?>
<svg width="48px" height="48px" viewBox="0 0 48 48" version="1.1" xmlns="http://www.w3.org/2000/svg" xmlns:xlink="http://www.w3.org/1999/xlink">
    <!-- Generator: Sketch 54.1 (76490) - https://sketchapp.com -->
    <title>uikit</title>
    <desc>Created with Sketch.</desc>
    <g id="August" stroke="none" stroke-width="1" fill="none" fill-rule="evenodd">
        <g id="Artboard" transform="translate(-357.000000, -197.000000)" fill="#000000">
            <g id="uikit" transform="translate(357.000000, 197.000000)">
                <path d="M-1.08357767e-13,19.7647059 L28.2352941,19.7647059 L28.2352941,48 L5.64705882,48 C2.52827435,48 -1.09752183e-13,45.4717256 -1.10134124e-13,42.3529412 L-1.08357767e-13,19.7647059 Z M14.1176471,-5.41788836e-14 L28.2352941,-5.41788836e-14 L28.2352941,14.1176471 L14.1176471,14.1176471 L14.1176471,-5.41788836e-14 Z M33.8823529,-5.41788836e-14 L42.3529412,-5.41788836e-14 C45.4717256,-5.4751795e-14 48,2.52827435 48,5.64705882 L48,14.1176471 L33.8823529,14.1176471 L33.8823529,-5.41788836e-14 Z M33.8823529,19.7647059 L48,19.7647059 L48,33.8823529 L33.8823529,33.8823529 L33.8823529,19.7647059 Z" id="Combined-Shape"></path>
            </g>
        </g>
    </g>
</svg>