<?xml version="1.0" encoding="UTF-8"?>
<svg width="48px" height="28px" viewBox="0 0 48 28" version="1.1" xmlns="http://www.w3.org/2000/svg" xmlns:xlink="http://www.w3.org/1999/xlink">
    <!-- Generator: Sketch 53.2 (72643) - https://sketchapp.com -->
    <title>cisco</title>
    <desc>Created with Sketch.</desc>
    <g id="Page-1" stroke="none" stroke-width="1" fill="none" fill-rule="evenodd">
        <g id="cisco" fill="#000000" fill-rule="nonzero">
            <polygon id="Fill-1" points="13.5471179 18.24 15.514331 18.24 15.514331 27.76 13.5471179 27.76"></polygon>
            <path d="M32.904495,21.04 C32.8258064,20.96 32.1176097,20.56 31.0159704,20.56 C29.5995769,20.56 28.5766261,21.6 28.5766261,23.04 C28.5766261,24.4 29.5208884,25.52 31.0159704,25.52 C32.0389212,25.52 32.8258064,25.12 32.904495,25.04 L32.904495,27.52 C32.5897409,27.6 31.8815441,27.84 30.8585933,27.84 C28.3405605,27.84 26.1372818,26 26.1372818,23.04 C26.1372818,20.32 28.104495,18.24 30.8585933,18.24 C31.8815441,18.24 32.6684294,18.48 32.904495,18.56 L32.904495,21.04" id="Fill-2"></path>
            <path d="M10.6356425,21.04 C10.556954,20.96 9.84875725,20.56 8.7471179,20.56 C7.33072446,20.56 6.30777364,21.6 6.30777364,23.04 C6.30777364,24.4 7.25203593,25.52 8.7471179,25.52 C9.77006872,25.52 10.556954,25.12 10.6356425,25.04 L10.6356425,27.52 C10.3208884,27.6 9.61269167,27.84 8.58974085,27.84 C6.07170807,27.84 3.86842938,26 3.86842938,23.04 C3.86842938,20.32 5.83564249,18.24 8.58974085,18.24 C9.61269167,18.24 10.3995769,18.48 10.6356425,18.56 L10.6356425,21.04" id="Fill-3"></path>
            <path d="M39.1995769,20.56 C37.9405605,20.56 37.0749868,21.68 37.0749868,22.96 C37.0749868,24.32 38.019249,25.36 39.1995769,25.36 C40.4585933,25.36 41.3241671,24.24 41.3241671,22.96 C41.4028556,21.68 40.4585933,20.56 39.1995769,20.56 L39.1995769,20.56 Z M43.6061343,22.96 C43.6061343,25.6 41.7962982,27.76 39.2782654,27.76 C36.7602327,27.76 34.9503966,25.6 34.9503966,22.96 C34.9503966,20.32 36.7602327,18.16 39.2782654,18.16 C41.7176097,18.24 43.6061343,20.32 43.6061343,22.96 L43.6061343,22.96 Z" id="Fill-4"></path>
            <path d="M23.619249,20.48 C23.619249,20.48 22.6749868,20.16 21.96679,20.16 C21.1012163,20.16 20.6290851,20.48 20.6290851,20.88 C20.6290851,21.44 21.2585933,21.6 21.5733474,21.76 L22.1241671,22 C23.5405605,22.48 24.1700687,23.52 24.1700687,24.64 C24.1700687,26.96 22.2815441,27.76 20.7077736,27.76 C19.6061343,27.76 18.504495,27.52 18.4258064,27.52 L18.4258064,25.36 C18.5831835,25.44 19.5274458,25.68 20.4717081,25.68 C21.4946589,25.68 22.0454786,25.36 22.0454786,24.8 C22.0454786,24.32 21.6520359,24.08 21.1012163,23.92 C20.9438392,23.84 20.7864622,23.84 20.6290851,23.76 C19.4487572,23.36 18.4258064,22.56 18.4258064,21.04 C18.4258064,19.28 19.6061343,18.16 21.5733474,18.16 C22.5962982,18.16 23.619249,18.4 23.619249,18.48 L23.619249,20.48" id="Fill-5"></path>
            <path d="M1.97990479,8.64 C1.97990479,8.08 1.58646216,7.6 1.03564249,7.6 C0.48482282,7.6 0.0913801967,8.08 0.0913801967,8.64 L0.0913801967,10.8 C0.0913801967,11.36 0.563511344,11.84 1.03564249,11.84 C1.58646216,11.84 1.97990479,11.36 1.97990479,10.8 L1.97990479,8.64" id="Fill-6"></path>
            <path d="M7.72416708,5.52 C7.72416708,4.96 7.25203593,4.4 6.77990479,4.4 C6.22908511,4.4 5.83564249,4.88 5.83564249,5.52 L5.83564249,10.8 C5.83564249,11.44 6.30777364,11.92 6.77990479,11.92 C7.33072446,11.92 7.72416708,11.44 7.72416708,10.8 L7.72416708,5.52" id="Fill-7"></path>
            <path d="M13.5471179,1.36 C13.5471179,0.72 13.0749868,0.16 12.6028556,0.16 C12.0520359,0.16 11.6585933,0.72 11.6585933,1.36 L11.6585933,13.84 C11.6585933,14.48 12.1307245,15.04 12.6028556,15.04 C13.1536753,15.04 13.5471179,14.48 13.5471179,13.84 L13.5471179,1.36" id="Fill-8"></path>
            <path d="M19.3700687,5.52 C19.3700687,4.96 18.8979376,4.4 18.4258064,4.4 C17.8749868,4.4 17.4815441,4.88 17.4815441,5.52 L17.4815441,10.8 C17.4815441,11.44 17.9536753,11.92 18.4258064,11.92 C18.9766261,11.92 19.3700687,11.44 19.3700687,10.8 L19.3700687,5.52" id="Fill-9"></path>
            <path d="M25.1930195,8.64 C25.1930195,8.08 24.7208884,7.6 24.2487572,7.6 C23.6979376,7.6 23.304495,8.08 23.304495,8.64 L23.304495,10.8 C23.304495,11.36 23.7766261,11.84 24.2487572,11.84 C24.7995769,11.84 25.1930195,11.36 25.1930195,10.8 L25.1930195,8.64" id="Fill-10"></path>
            <path d="M31.0159704,5.52 C31.0159704,4.96 30.5438392,4.4 30.0717081,4.4 C29.5208884,4.4 29.1274458,4.88 29.1274458,5.52 L29.1274458,10.8 C29.1274458,11.44 29.5208884,11.92 30.0717081,11.92 C30.6225277,11.92 31.0159704,11.44 31.0159704,10.8 L31.0159704,5.52" id="Fill-11"></path>
            <path d="M36.7602327,1.36 C36.7602327,0.72 36.36679,0.16 35.8159704,0.16 C35.2651507,0.16 34.8717081,0.72 34.8717081,1.36 L34.8717081,13.84 C34.8717081,14.48 35.3438392,15.04 35.8159704,15.04 C36.36679,15.04 36.7602327,14.48 36.7602327,13.84 L36.7602327,1.36" id="Fill-12"></path>
            <path d="M41.6389212,5.52 C41.6389212,4.96 41.2454786,4.4 40.6946589,4.4 C40.1438392,4.4 39.7503966,4.88 39.7503966,5.52 L39.7503966,10.8 C39.7503966,11.44 40.1438392,11.92 40.6946589,11.92 C41.2454786,11.92 41.6389212,11.44 41.6389212,10.8 L41.6389212,5.52" id="Fill-13"></path>
            <path d="M47.461872,8.64 C47.461872,8.08 46.9897409,7.6 46.5176097,7.6 C45.96679,7.6 45.5733474,8.08 45.5733474,8.64 L45.5733474,10.8 C45.5733474,11.36 45.96679,11.84 46.5176097,11.84 C47.0684294,11.84 47.461872,11.36 47.461872,10.8 L47.461872,8.64" id="Fill-14"></path>
        </g>
    </g>
</svg>