<?xml version="1.0" encoding="UTF-8"?>
<svg width="45px" height="46px" viewBox="0 0 45 46" version="1.1" xmlns="http://www.w3.org/2000/svg" xmlns:xlink="http://www.w3.org/1999/xlink">
    <!-- Generator: Sketch 53.2 (72643) - https://sketchapp.com -->
    <title>Features</title>
    <desc>Created with Sketch.</desc>
    <g id="Page-1" stroke="none" stroke-width="1" fill="none" fill-rule="evenodd">
        <g id="Features" transform="translate(0.000000, 0.294000)" fill="#000000" fill-rule="nonzero">
            <path d="M18.75,8.706 C17.784,8.706 17,7.81 17,6.706 C17,5.602 17.784,4.706 18.75,4.706 L43.25,4.706 C44.216,4.706 45,5.602 45,6.706 C45,7.81 44.216,8.706 43.25,8.706 L18.75,8.706 Z" id="Features-path"></path>
            <path d="M43.25,38.706 C44.216,38.706 45,39.602 45,40.706 C45,41.81 44.216,42.706 43.25,42.706 L18.75,42.706 C17.784,42.706 17,41.81 17,40.706 C17,39.602 17.784,38.706 18.75,38.706 L43.25,38.706 Z" id="Features-path"></path>
            <path d="M43.25,21.706 C44.216,21.706 45,22.602 45,23.706 C45,24.81 44.216,25.706 43.25,25.706 L18.75,25.706 C17.784,25.706 17,24.81 17,23.706 C17,22.602 17.784,21.706 18.75,21.706 L43.25,21.706 Z" id="Features-path"></path>
            <polygon id="Path" points="12 4.359 7.854 3.75675 6 0 4.146 3.75675 0 4.359 3 7.28325 2.292 11.412 6 9.46275 9.708 11.412 9 7.28325 12 4.359"></polygon>
            <polygon id="Path" points="12 21.359 7.854 20.75675 6 17 4.146 20.75675 0 21.359 3 24.28325 2.292 28.412 6 26.46275 9.708 28.412 9 24.28325 12 21.359"></polygon>
            <polygon id="Path" points="12 38.359 7.854 37.75675 6 34 4.146 37.75675 0 38.359 3 41.28325 2.292 45.412 6 43.46275 9.708 45.412 9 41.28325 12 38.359"></polygon>
        </g>
    </g>
</svg>