<?xml version="1.0" encoding="UTF-8"?>
<svg width="21px" height="44px" viewBox="0 0 21 44" version="1.1" xmlns="http://www.w3.org/2000/svg" xmlns:xlink="http://www.w3.org/1999/xlink">
    <!-- Generator: Sketch 53.2 (72643) - https://sketchapp.com -->
    <title>draggable</title>
    <desc>Created with Sketch.</desc>
    <g id="Page-1" stroke="none" stroke-width="1" fill="none" fill-rule="evenodd">
        <path d="M4,44 C1.790861,44 0,42.209139 0,40 C0,37.790861 1.790861,36 4,36 C6.209139,36 8,37.790861 8,40 C8,42.209139 6.209139,44 4,44 Z M4,26 C1.790861,26 0,24.209139 0,22 C0,19.790861 1.790861,18 4,18 C6.209139,18 8,19.790861 8,22 C8,24.209139 6.209139,26 4,26 Z M4,8 C1.790861,8 0,6.209139 0,4 C0,1.790861 1.790861,0 4,0 C6.209139,0 8,1.790861 8,4 C8,6.209139 6.209139,8 4,8 Z M17,44 C14.790861,44 13,42.209139 13,40 C13,37.790861 14.790861,36 17,36 C19.209139,36 21,37.790861 21,40 C21,42.209139 19.209139,44 17,44 Z M17,26 C14.790861,26 13,24.209139 13,22 C13,19.790861 14.790861,18 17,18 C19.209139,18 21,19.790861 21,22 C21,24.209139 19.209139,26 17,26 Z M17,8 C14.790861,8 13,6.209139 13,4 C13,1.790861 14.790861,0 17,0 C19.209139,0 21,1.790861 21,4 C21,6.209139 19.209139,8 17,8 Z" id="draggable" fill="#000000" fill-rule="nonzero"></path>
    </g>
</svg>