<?xml version="1.0" encoding="UTF-8"?>
<svg width="48px" height="43px" viewBox="0 0 48 43" version="1.1" xmlns="http://www.w3.org/2000/svg" xmlns:xlink="http://www.w3.org/1999/xlink">
    <!-- Generator: Sketch 54.1 (76490) - https://sketchapp.com -->
    <title>stability</title>
    <desc>Created with Sketch.</desc>
    <g id="Page-1" stroke="none" stroke-width="1" fill="none" fill-rule="evenodd">
        <path d="M23.9895105,18 L36.979021,42.7666667 L11,42.7666667 L23.9895105,18 Z M7,14 C3.13400675,14 0,10.8659932 0,7 C0,3.13400675 3.13400675,0 7,0 C10.8659932,0 14,3.13400675 14,7 C14,10.8659932 10.8659932,14 7,14 Z M41,14 C37.1340068,14 34,10.8659932 34,7 C34,3.13400675 37.1340068,0 41,0 C44.8659932,0 48,3.13400675 48,7 C48,10.8659932 44.8659932,14 41,14 Z M1,15 L47,15 C47.5522847,15 48,15.4477153 48,16 C48,16.5522847 47.5522847,17 47,17 L1,17 C0.44771525,17 6.76353751e-17,16.5522847 0,16 C-6.76353751e-17,15.4477153 0.44771525,15 1,15 Z" id="stability" fill="#000000"></path>
    </g>
</svg>