<?xml version="1.0" encoding="UTF-8"?>
<svg width="47px" height="48px" viewBox="0 0 47 48" version="1.1" xmlns="http://www.w3.org/2000/svg" xmlns:xlink="http://www.w3.org/1999/xlink">
    <!-- Generator: Sketch 53 (72520) - https://sketchapp.com -->
    <title>software</title>
    <desc>Created with Sketch.</desc>
    <g id="Page-1" stroke="none" stroke-width="1" fill="none" fill-rule="evenodd">
        <g id="software" fill="#000000" fill-rule="nonzero">
            <path d="M47,33.3061224 L47,45.1080432 C47,46.1900705 46.1228436,47.0672269 45.0408163,47.0672269 L1.95918367,47.0672269 C0.877156408,47.0672269 1.32510123e-16,46.1900705 0,45.1080432 L0,33.3061224 L0,30.3673469 L47,30.3673469 L47,33.3061224 Z M44.0849992,33.3061224 L2.90082625,33.3061224 L2.90082625,44.1817977 L44.0849992,44.1817977 L44.0849992,33.3061224 Z M23.5,0 C36.4582917,0 47,10.5462857 47,23.5102041 C47,24.8267755 46.8560625,26.133551 46.6328125,27.4285714 L43.6341146,27.4285714 C43.9024063,26.1374694 44.0625,24.8287347 44.0625,23.5102041 C44.0625,12.7072653 34.29825,2.93877551 23.5,2.93877551 C12.70175,2.93877551 2.9375,12.7072653 2.9375,23.5102041 C2.9375,24.8287347 3.09759375,26.1374694 3.36588542,27.4285714 L0.3671875,27.4285714 C0.145895833,26.133551 0,24.8267755 0,23.5102041 C0,10.5462857 10.5417083,0 23.5,0 Z M23.5,17.6326531 C26.7390833,17.6326531 29.375,20.2697143 29.375,23.5102041 C29.375,25.0207347 28.7850521,26.3862857 27.8450521,27.4285714 L19.1549479,27.4285714 C18.2169063,26.3862857 17.625,25.0207347 17.625,23.5102041 C17.625,20.2697143 20.2609167,17.6326531 23.5,17.6326531 Z M23.5,20.5714286 C21.8785,20.5714286 20.5625,21.8909388 20.5625,23.5102041 C20.5625,25.1294694 21.8785,26.4489796 23.5,26.4489796 C25.1215,26.4489796 26.4375,25.1294694 26.4375,23.5102041 C26.4375,21.8909388 25.1215,20.5714286 23.5,20.5714286 Z" id="Combined-Shape"></path>
        </g>
    </g>
</svg>