<?xml version="1.0" encoding="UTF-8"?>
<svg width="33px" height="48px" viewBox="0 0 33 48" version="1.1" xmlns="http://www.w3.org/2000/svg" xmlns:xlink="http://www.w3.org/1999/xlink">
    <!-- Generator: Sketch 55.2 (78181) - https://sketchapp.com -->
    <title>app-popout</title>
    <desc>Created with Sketch.</desc>
    <g id="Page-1" stroke="none" stroke-width="1" fill="none" fill-rule="evenodd">
        <g id="app-popout" fill="#000000" fill-rule="nonzero">
            <path d="M7.61538462,12.6315789 L7.61538462,15.1578947 L3.26923077,15.1578947 C2.86228411,15.1578947 2.53238866,15.4877901 2.53238866,15.8947368 L2.53238866,44.7368421 C2.53238866,45.1437888 2.86228411,45.4736842 3.26923077,45.4736842 L29.7307692,45.4736842 C30.1377159,45.4736842 30.4676113,45.1437888 30.4676113,44.7368421 L30.4676113,15.8947368 C30.4676113,15.4877901 30.1377159,15.1578947 29.7307692,15.1578947 L25.3846154,15.1578947 L25.3846154,12.6315789 L29.7307692,12.6315789 C31.5329615,12.6315789 32.9939271,14.0925445 32.9939271,15.8947368 L32.9939271,44.7368421 C32.9939271,46.5390344 31.5329615,48 29.7307692,48 L3.26923077,48 C1.46703843,48 0.006072874,46.5390344 0.006072874,44.7368421 L0.006072874,15.8947368 C0.006072874,14.0925445 1.46703843,12.6315789 3.26923077,12.6315789 L7.61538462,12.6315789 Z M17.7631579,25.2631579 L15.2368421,25.2631579 L15.2368421,2.52631579 L17.7631579,2.52631579 L17.7631579,25.2631579 Z" id="Combined-Shape"></path>
            <polygon id="Path" points="23.2269231 10.1052632 16.5 3.53684211 9.77307692 10.1052632 7.99615385 8.33684211 16.5 0 25.0038462 8.33684211"></polygon>
        </g>
    </g>
</svg>