<?xml version="1.0" encoding="UTF-8"?>
<svg width="48px" height="48px" viewBox="0 0 48 48" version="1.1" xmlns="http://www.w3.org/2000/svg" xmlns:xlink="http://www.w3.org/1999/xlink">
    <!-- Generator: Sketch 53.2 (72643) - https://sketchapp.com -->
    <title>iconfinder_clone_1608634</title>
    <desc>Created with Sketch.</desc>
    <g id="Page-1" stroke="none" stroke-width="1" fill="none" fill-rule="evenodd">
        <g id="iconfinder_clone_1608634" fill="#000000" fill-rule="nonzero">
            <path d="M44.5714286,43.7142857 L44.5714286,14.5714286 C44.5714286,14.3392857 44.4866071,14.1383929 44.3169643,13.96875 C44.1473214,13.7991071 43.9464286,13.7142857 43.7142857,13.7142857 L14.5714286,13.7142857 C14.3392857,13.7142857 14.1383929,13.7991071 13.96875,13.96875 C13.7991071,14.1383929 13.7142857,14.3392857 13.7142857,14.5714286 L13.7142857,43.7142857 C13.7142857,43.9464286 13.7991071,44.1473214 13.96875,44.3169643 C14.1383929,44.4866071 14.3392857,44.5714286 14.5714286,44.5714286 L43.7142857,44.5714286 C43.9464286,44.5714286 44.1473214,44.4866071 44.3169643,44.3169643 C44.4866071,44.1473214 44.5714286,43.9464286 44.5714286,43.7142857 Z M48,14.5714286 L48,43.7142857 C48,44.8928571 47.5803571,45.9017857 46.7410714,46.7410714 C45.9017857,47.5803571 44.8928571,48 43.7142857,48 L14.5714286,48 C13.3928571,48 12.3839286,47.5803571 11.5446429,46.7410714 C10.7053571,45.9017857 10.2857143,44.8928571 10.2857143,43.7142857 L10.2857143,14.5714286 C10.2857143,13.3928571 10.7053571,12.3839286 11.5446429,11.5446429 C12.3839286,10.7053571 13.3928571,10.2857143 14.5714286,10.2857143 L43.7142857,10.2857143 C44.8928571,10.2857143 45.9017857,10.7053571 46.7410714,11.5446429 C47.5803571,12.3839286 48,13.3928571 48,14.5714286 Z M37.7142857,4.28571429 L37.7142857,8.57142857 L34.2857143,8.57142857 L34.2857143,4.28571429 C34.2857143,4.05357143 34.2008929,3.85267857 34.03125,3.68303571 C33.8616071,3.51339286 33.6607143,3.42857143 33.4285714,3.42857143 L4.28571429,3.42857143 C4.05357143,3.42857143 3.85267857,3.51339286 3.68303571,3.68303571 C3.51339286,3.85267857 3.42857143,4.05357143 3.42857143,4.28571429 L3.42857143,33.4285714 C3.42857143,33.6607143 3.51339286,33.8616071 3.68303571,34.03125 C3.85267857,34.2008929 4.05357143,34.2857143 4.28571429,34.2857143 L8.57142857,34.2857143 L8.57142857,37.7142857 L4.28571429,37.7142857 C3.10714286,37.7142857 2.09821429,37.2946429 1.25892857,36.4553571 C0.419642857,35.6160714 0,34.6071429 0,33.4285714 L0,4.28571429 C0,3.10714286 0.419642857,2.09821429 1.25892857,1.25892857 C2.09821429,0.419642857 3.10714286,0 4.28571429,0 L33.4285714,0 C34.6071429,0 35.6160714,0.419642857 36.4553571,1.25892857 C37.2946429,2.09821429 37.7142857,3.10714286 37.7142857,4.28571429 Z" id="Shape"></path>
        </g>
    </g>
</svg>