<?xml version="1.0" encoding="UTF-8"?>
<svg width="47px" height="41px" viewBox="0 0 47 41" version="1.1" xmlns="http://www.w3.org/2000/svg" xmlns:xlink="http://www.w3.org/1999/xlink">
    <!-- Generator: Sketch 55.2 (78181) - https://sketchapp.com -->
    <title>chat</title>
    <desc>Created with Sketch.</desc>
    <g id="Page-1" stroke="none" stroke-width="1" fill="none" fill-rule="evenodd">
        <g id="chat" fill="#000000" fill-rule="nonzero">
            <path d="M40.2715294,40.7661872 C39.9736471,40.767431 39.6842353,40.6571552 39.4625882,40.4578103 L31.2870588,33.0806379 L15.3736471,33.0806379 C14.7101176,33.0806379 14.1736471,32.5433966 14.1736471,31.8789138 C14.1736471,31.2158448 14.7101176,30.6771897 15.3736471,30.6771897 L31.7628235,30.6771897 C32.0607059,30.6757759 32.3487059,30.7860517 32.5703529,30.9853966 L39.0912941,36.8597069 L39.0912941,31.8732586 C39.0912941,31.2116034 39.6249412,30.6771897 40.2842353,30.6771897 L44.6098824,30.6771897 L44.6098824,10.9095345 L36.4597647,10.9095345 C35.8004706,10.9095345 35.2668235,10.3751207 35.2668235,9.71487931 L35.2668235,3.12094828 L2.75670588,3.12094828 L2.75670588,22.8886034 L8.18635294,22.8886034 C8.84564706,22.8886034 9.37929412,23.4230172 9.37929412,24.0832586 L9.37929412,29.0583966 L15.8988235,23.1840862 C16.1105882,23.0017069 16.3774118,22.8956724 16.6569412,22.8886034 L35.2527059,22.8886034 L35.2527059,14.2262931 C35.2527059,13.5632241 35.7905882,13.024569 36.4527059,13.024569 C37.1162353,13.024569 37.6541176,13.5632241 37.6541176,14.2262931 L37.6541176,24.0832586 C37.6541176,24.7435 37.1190588,25.2793276 36.4597647,25.2793276 L17.2089412,25.2793276 L8.95576471,32.6692241 C8.60705882,32.991569 8.09882353,33.0763966 7.664,32.8841207 C7.23058824,32.690431 6.95105882,32.2578103 6.95388235,31.7827759 L6.95388235,25.3570862 L1.56376471,25.3570862 C1.23058824,25.3613276 0.911529412,25.2256034 0.682823529,24.9838448 C0.454117647,24.7420862 0.335529412,24.4169138 0.358117647,24.0832586 L0.358117647,1.91356897 C0.358117647,1.25332759 0.891764706,0.7175 1.55105882,0.7175 L36.4597647,0.7175 C37.1190588,0.7175 37.6541176,1.25332759 37.6541176,1.91356897 L37.6541176,8.49336207 L45.7901176,8.49336207 C46.4494118,8.49336207 46.9830588,9.02918966 46.9830588,9.68943103 L46.9830588,31.8732586 C46.9830588,32.5335 46.4494118,33.0679138 45.7901176,33.0679138 L41.4771765,33.0679138 L41.4771765,39.4950172 C41.4997647,39.8272586 41.3811765,40.152431 41.1524706,40.3941897 C40.9237647,40.6359483 40.6047059,40.7716724 40.2715294,40.7661872" id="Fill-53"></path>
        </g>
    </g>
</svg>