<?xml version="1.0" encoding="UTF-8"?>
<svg width="48px" height="48px" viewBox="0 0 48 48" version="1.1" xmlns="http://www.w3.org/2000/svg" xmlns:xlink="http://www.w3.org/1999/xlink">
    <!-- Generator: Sketch 52.3 (67297) - http://www.bohemiancoding.com/sketch -->
    <title>help-outline</title>
    <desc>Created with Sketch.</desc>
    <g id="Page-1" stroke="none" stroke-width="1" fill="none" fill-rule="evenodd">
        <g id="help-outline">
            <path d="M24,43.95 C12.9,43.95 4.05,34.95 4.05,24 C4.05,12.9 13.05,4.05 24,4.05 C35.1,4.05 43.95,13.05 43.95,24 C43.95,35.1 35.1,43.95 24,43.95 Z M24,0 C10.8,0 0,10.8 0,24 C0,37.2 10.8,48 24,48 C37.2,48 48,37.2 48,24 C48,10.8 37.2,0 24,0 Z" id="SVGID_1_" fill="#000000" fill-rule="nonzero"></path>
            <path d="M24.3,36 C23.25,36 22.35,35.1 22.35,34.05 C22.35,33 23.25,32.1 24.3,32.1 C25.35,32.1 26.25,33 26.25,34.05 C26.25,35.1 25.35,36 24.3,36" id="SVGID_3_" fill="#000000"></path>
            <path d="M24.3,36 C23.25,36 22.35,35.1 22.35,34.05 C22.35,33 23.25,32.1 24.3,32.1 C25.35,32.1 26.25,33 26.25,34.05 C26.25,35.1 25.35,36 24.3,36" id="Path"></path>
            <path d="M28.8,23.25 L26.4,25.5 C26.4,25.5 26.4,25.5 26.4,25.65 L26.4,27 C26.4,28.05 25.5,28.95 24.45,28.95 C23.4,28.95 22.5,28.05 22.5,27 L22.5,25.65 C22.5,24.45 22.95,23.4 23.85,22.65 L26.25,20.4 C26.7,19.95 26.85,19.35 26.85,18.6 C26.85,17.1 25.65,15.9 24.15,15.9 C22.65,15.9 21.45,17.1 21.45,18.6 C21.45,19.65 20.55,20.55 19.5,20.55 C18.45,20.55 17.55,19.65 17.55,18.6 C17.55,15 20.55,12 24.15,12 C27.75,12 30.75,15 30.75,18.6 C30.6,20.4 30,22.05 28.8,23.25" id="SVGID_5_" fill="#000000"></path>
            <path d="M28.8,23.25 L26.4,25.5 C26.4,25.5 26.4,25.5 26.4,25.65 L26.4,27 C26.4,28.05 25.5,28.95 24.45,28.95 C23.4,28.95 22.5,28.05 22.5,27 L22.5,25.65 C22.5,24.45 22.95,23.4 23.85,22.65 L26.25,20.4 C26.7,19.95 26.85,19.35 26.85,18.6 C26.85,17.1 25.65,15.9 24.15,15.9 C22.65,15.9 21.45,17.1 21.45,18.6 C21.45,19.65 20.55,20.55 19.5,20.55 C18.45,20.55 17.55,19.65 17.55,18.6 C17.55,15 20.55,12 24.15,12 C27.75,12 30.75,15 30.75,18.6 C30.6,20.4 30,22.05 28.8,23.25" id="Path"></path>
        </g>
    </g>
</svg>

