<?xml version="1.0" encoding="UTF-8"?>
<svg width="49px" height="32px" viewBox="0 0 49 32" version="1.1" xmlns="http://www.w3.org/2000/svg" xmlns:xlink="http://www.w3.org/1999/xlink">
    <!-- Generator: Sketch 55.2 (78181) - https://sketchapp.com -->
    <title>community</title>
    <desc>Created with Sketch.</desc>
    <g id="Page-1" stroke="none" stroke-width="1" fill="none" fill-rule="evenodd">
        <g id="community" transform="translate(1.000000, 1.000000)" fill="#000000" fill-rule="nonzero" stroke="#000000" stroke-width="0.5">
            <path d="M29.7754667,29.8925333 L16.6781333,29.8925333 C16.4368,29.8925333 16.2048,29.7978667 16.0341333,29.6258667 C15.8634667,29.4552 15.7674667,29.2232 15.7674667,28.9818667 L15.7674667,24.0845333 C15.7674667,21.3392 13.5461333,19.1125333 10.8008,19.1072 L6.93146667,19.1072 C4.18746667,19.1125333 1.9648,21.3392 1.9648,24.0845333 L1.9648,27.2872 L3.9248,27.2872 L3.9248,24.0752 C3.9248,23.5685333 4.33413333,23.1578667 4.83946667,23.1578667 C5.34613333,23.1578667 5.75546667,23.5685333 5.75546667,24.0752 L5.75546667,28.2658667 C5.75546667,28.7698667 5.3488,29.1778667 4.8448,29.1778667 L1.0448,29.1778667 C0.5408,29.1778667 0.134133333,28.7698667 0.134133333,28.2658667 L0.134133333,24.0752 C0.159466667,20.3285333 3.18613333,17.2978667 6.93146667,17.2658667 L10.7914667,17.2658667 C14.5328,17.2978667 17.5568,20.3232 17.5901333,24.0645333 L17.5901333,28.0712 L28.8554667,28.0712 L28.8554667,22.3298667 C28.8554667,21.8245333 29.2648,21.4152 29.7714667,21.4152 C30.2768,21.4152 30.6874667,21.8245333 30.6874667,22.3298667 L30.6874667,28.9818667 C30.6874667,29.2232 30.5901333,29.4552 30.4194667,29.6258667 C30.2488,29.7978667 30.0181333,29.8925333 29.7754667,29.8925333 Z" id="Stroke-3"></path>
            <path d="M29.7754667,23.222 C29.2728,23.222 28.8648,22.814 28.8648,22.31 L28.8648,18.3926667 C28.8754667,17.3753333 28.4781333,16.398 27.7621333,15.6766667 C27.0461333,14.9553333 26.0701333,14.55 25.0541333,14.5526667 L21.9688,14.5526667 C19.8728,14.5686667 18.1861333,16.278 18.1968,18.3726667 C18.1968,18.878 17.7874667,19.2886667 17.2808,19.2886667 C16.7754667,19.2886667 16.3648,18.878 16.3648,18.3726667 C16.3701333,15.2646667 18.8888,12.746 21.9981333,12.7406667 L25.0541333,12.7406667 C28.1648,12.7406667 30.6875901,15.262 30.6875901,18.3726667 L30.6875901,22.2913333 C30.6914667,22.5353333 30.5981333,22.7726667 30.4274667,22.9486667 C30.2554667,23.1233333 30.0208,23.222 29.7754667,23.222 Z" id="Stroke-7"></path>
            <path d="M8.60693333,6.41213333 C6.44293333,6.41213333 4.68826667,8.16546667 4.68826667,10.3294667 C4.68826667,12.4948 6.44293333,14.2494667 8.60693333,14.2494667 C10.7709333,14.2494667 12.5242667,12.4948 12.5242667,10.3294667 C12.4976,8.18546667 10.7522667,6.46146667 8.60693333,6.46146667 L8.60693333,6.41213333 Z M8.60693333,16.2081333 C5.4096,16.2081333 2.8176,13.6161333 2.8176,10.4188 C2.8176,7.22013333 5.4096,4.62946667 8.60693333,4.62946667 C11.8042667,4.62946667 14.3962667,7.22013333 14.3962667,10.4188 C14.3909333,13.6134667 11.8016,16.2028 8.60693333,16.2081333 Z" id="Stroke-11"></path>
            <path d="M30.6277333,29.8925882 L17.5210667,29.8925882 C17.0157333,29.8925882 16.6050667,29.4818667 16.6050667,28.9765333 C16.6050667,28.4712 17.0157333,28.0605333 17.5210667,28.0605333 L29.7077333,28.0605333 L29.7077333,24.0752 C29.7384,20.3325333 32.7650667,17.3085333 36.5050667,17.2752 L40.3650667,17.2752 C44.1064,17.3085333 47.1317333,20.3325333 47.1637333,24.0752 L47.1637333,28.2658667 C47.1637333,28.7698667 46.7557333,29.1778667 46.2530667,29.1778667 L42.4330667,29.1778667 C41.9290667,29.1778667 41.5210667,28.7698667 41.5210667,28.2658667 L41.5210667,24.0752 C41.5210667,23.5685333 41.9317333,23.1578667 42.4370667,23.1578667 C42.9424,23.1578667 43.3530667,23.5685333 43.3530667,24.0752 L43.3530667,27.2872 L45.3117333,27.2872 L45.3117333,24.0752 C45.3117333,21.3298667 43.0904,19.1032 40.3464,19.0978667 L36.5157333,19.0978667 C33.7704,19.1032 31.5490667,21.3298667 31.5490667,24.0752 L31.5490667,28.9725333 C31.5517333,29.2165333 31.4557333,29.4525333 31.2824,29.6258667 C31.1090667,29.8005333 30.8730667,29.8952 30.6277333,29.8925882 Z" id="Stroke-15"></path>
            <path d="M38.1902667,6.41213333 C36.0262667,6.41213333 34.2729333,8.16546667 34.2729333,10.3294667 C34.2729333,12.4948 36.0262667,14.2494667 38.1902667,14.2494667 C40.3542667,14.2494667 42.1089333,12.4948 42.1089333,10.3294667 C42.0822667,8.18546667 40.3356,6.46146667 38.1902667,6.46146667 L38.1902667,6.41213333 Z M38.1902667,16.2081333 C34.9929333,16.2081333 32.4009333,13.6161333 32.4009333,10.4188 C32.4009333,7.22013333 34.9929333,4.62946667 38.1902667,4.62946667 C41.3876,4.62946667 43.9796,7.22013333 43.9796,10.4188 C43.9742667,13.6134667 41.3849333,16.2028 38.1902667,16.2081333 Z" id="Stroke-19"></path>
            <path d="M23.2612,2.0136 C21.0972,2.0136 19.3438667,3.76693333 19.3438667,5.93093333 C19.3438667,8.09626667 21.0972,9.85093333 23.2612,9.85093333 C25.4252,9.85093333 27.1798667,8.09626667 27.1798667,5.93093333 C27.1532,3.78693333 25.4065333,2.06293333 23.2612,2.06293333 L23.2612,2.0136 Z M23.2612,11.8096 C20.0638667,11.8096 17.4718667,9.2176 17.4718667,6.02026667 C17.4718667,2.82293333 20.0638667,0.230933333 23.2612,0.230933333 C26.4585333,0.230933333 29.0505333,2.82293333 29.0505333,6.02026667 C29.0452,9.21493333 26.4558667,11.8042667 23.2612,11.8096 Z" id="Stroke-23"></path>
        </g>
    </g>
</svg>