<?xml version="1.0" encoding="UTF-8"?>
<svg width="46px" height="45px" viewBox="0 0 46 45" version="1.1" xmlns="http://www.w3.org/2000/svg" xmlns:xlink="http://www.w3.org/1999/xlink">
    <!-- Generator: Sketch 53.2 (72643) - https://sketchapp.com -->
    <title>cpu-chip</title>
    <desc>Created with Sketch.</desc>
    <g id="Page-1" stroke="none" stroke-width="1" fill="none" fill-rule="evenodd">
        <g id="cpu-chip" fill="#000000" fill-rule="nonzero">
            <path d="M27.0000002,39 L19.0000002,39 L19.0000002,42.8770369 C19.0000002,43.7522961 18.1200002,44.4399998 17.0000002,44.4399998 C15.8800002,44.4399998 15.0000002,43.7522961 15.0000002,42.8770369 L15.0000002,39 L7.41666667,39 C6.6375,39 6,38.04375 6,36.875 L6,30.2200002 L2.3429631,30.2200002 C1.46770388,30.2200002 0.78000021,29.3400002 0.78000021,28.2200002 C0.78000021,27.1000002 1.46770388,26.2200002 2.3429631,26.2200002 L6,26.2200002 L6,18.2200002 L2.3429631,18.2200002 C1.46770388,18.2200002 0.78000021,17.3400002 0.78000021,16.2200002 C0.78000021,15.1000002 1.46770388,14.2200002 2.3429631,14.2200002 L6,14.2200002 L6,7.125 C6,5.95625 6.6375,5 7.41666667,5 L14.9999998,5 L14.9999998,1.5629631 C14.9999998,0.6877039 15.8799998,1.99999999e-07 16.9999998,1.99999999e-07 C18.1199998,1.99999998e-07 18.9999998,0.6877039 18.9999998,1.5629631 L18.9999998,5 L26.9999998,5 L26.9999998,1.5629631 C26.9999998,0.6877039 27.8799998,2.00000001e-07 28.9999998,2.00000001e-07 C30.1199998,2e-07 30.9999998,0.6877039 30.9999998,1.5629631 L30.9999998,5 L38.5833333,5 C39.3625,5 40,5.95625 40,7.125 L40,14 L43.8770367,14 C44.7522959,14 45.4399996,14.88 45.4399996,16 C45.4399996,17.12 44.7522959,18 43.8770367,18 L40,18 L40,26 L43.8770367,26 C44.7522959,26 45.4399996,26.88 45.4399996,28 C45.4399996,29.12 44.7522959,30 43.8770367,30 L40,30 L40,36.875 C40,38.04375 39.3625,39 38.5833333,39 L31.0000002,39 L31.0000002,42.8770369 C31.0000002,43.7522961 30.1200002,44.4399998 29.0000002,44.4399998 C27.8800002,44.4399998 27.0000002,43.7522961 27.0000002,42.8770369 L27.0000002,39 Z M36.1633333,34.75 L36.1633333,9.25 L9.83333333,9.25 L9.83333333,34.75 L36.1633333,34.75 Z M29.4166667,15 C29.7375,15 30,15.39375 30,15.875 L30,28.125 C30,28.60625 29.7375,29 29.4166667,29 L16.5833333,29 C16.2625,29 16,28.60625 16,28.125 L16,15.875 C16,15.39375 16.2625,15 16.5833333,15 L29.4166667,15 Z M26.4184315,25.25 L26.4184315,18.75 L19.5784314,18.75 L19.5784314,25.25 L26.4184315,25.25 Z" id="Combined-Shape"></path>
        </g>
    </g>
</svg>