<?xml version="1.0" encoding="UTF-8"?>
<svg width="48px" height="33px" viewBox="0 0 48 33" version="1.1" xmlns="http://www.w3.org/2000/svg" xmlns:xlink="http://www.w3.org/1999/xlink">
    <!-- Generator: Sketch 53.2 (72643) - https://sketchapp.com -->
    <title>memory-ram</title>
    <desc>Created with Sketch.</desc>
    <g id="Page-1" stroke="none" stroke-width="1" fill="none" fill-rule="evenodd">
        <g id="memory-ram" fill="#000000" fill-rule="nonzero">
            <path d="M38.1818185,23.5276365 L31.6363641,23.5276365 L31.6363641,30.4090889 C31.6363641,31.3636342 30.6763641,32.1136342 29.4545459,32.1136342 C28.2327276,32.1136342 27.2727276,31.3636342 27.2727276,30.4090889 L27.2727276,23.5276365 L20.7272732,23.5276365 L20.7272732,30.4090912 C20.7272732,31.3636365 19.7672732,32.1136365 18.545455,32.1136365 C17.3236369,32.1136365 16.3636369,31.3636365 16.3636369,30.4090912 L16.3636369,23.5276365 L9.8181824,23.5276365 L9.8181824,30.4090907 C9.8181824,31.3636361 8.8581824,32.1136361 7.6363641,32.1136361 C6.4145461,32.1136361 5.4545461,31.3636361 5.4545461,30.4090907 L5.4545461,23.5276365 L2.0890909,23.5276365 C0.939272727,23.5276365 0,22.5883635 0,21.4385453 L0,2.70763635 C0,1.55781818 0.939272727,0.618545453 2.0890909,0.618545453 L45.910909,0.618545453 C47.0607273,0.618545453 48,1.55781818 48,2.70763635 L48,21.4385453 C48,22.5883635 47.0607273,23.5276365 45.910909,23.5276365 L42.5454547,23.5276365 L42.5454547,30.4090915 C42.5454547,31.3636369 41.5854547,32.1136369 40.3636367,32.1136369 C39.1418185,32.1136369 38.1818185,31.3636369 38.1818185,30.4090915 L38.1818185,23.5276365 Z" id="Combined-Shape"></path>
        </g>
    </g>
</svg>