<?xml version="1.0" encoding="UTF-8"?>
<svg width="44px" height="48px" viewBox="0 0 44 48" version="1.1" xmlns="http://www.w3.org/2000/svg" xmlns:xlink="http://www.w3.org/1999/xlink">
    <!-- Generator: Sketch 53.2 (72643) - https://sketchapp.com -->
    <title>chevron-right-double</title>
    <desc>Created with Sketch.</desc>
    <g id="Page-1" stroke="none" stroke-width="1" fill="none" fill-rule="evenodd">
        <path d="M2.83636364,48 C2.29090909,48 1.74545455,47.7818182 1.30909091,47.3454545 C0.436363636,46.4727273 0.436363636,45.1636364 1.30909091,44.2909091 L21.6,24 L1.30909091,3.70909091 C0.436363636,2.83636364 0.436363636,1.52727273 1.30909091,0.654545455 C2.18181818,-0.218181818 3.49090909,-0.218181818 4.36363636,0.654545455 L27.7090909,24 L4.36363636,47.3454545 C3.92727273,47.7818182 3.38181818,48 2.83636364,48 Z M18.8363636,48 C18.2909091,48 17.7454545,47.7818182 17.3090909,47.3454545 C16.4363636,46.4727273 16.4363636,45.1636364 17.3090909,44.2909091 L37.6,24 L17.3090909,3.70909091 C16.4363636,2.83636364 16.4363636,1.52727273 17.3090909,0.654545455 C18.1818182,-0.218181818 19.4909091,-0.218181818 20.3636364,0.654545455 L43.7090909,24 L20.3636364,47.3454545 C19.9272727,47.7818182 19.3818182,48 18.8363636,48 Z" id="chevron-right-double" fill="#000000" fill-rule="nonzero"></path>
    </g>
</svg>