<?xml version="1.0" encoding="UTF-8"?>
<svg width="45px" height="44px" viewBox="0 0 45 44" version="1.1" xmlns="http://www.w3.org/2000/svg" xmlns:xlink="http://www.w3.org/1999/xlink">
    <!-- Generator: Sketch 53.2 (72643) - https://sketchapp.com -->
    <title>Features</title>
    <desc>Created with Sketch.</desc>
    <g id="Page-1" stroke="none" stroke-width="1" fill="none" fill-rule="evenodd">
        <path d="M18.75,8 C17.784,8 17,7.104 17,6 C17,4.896 17.784,4 18.75,4 L43.25,4 C44.216,4 45,4.896 45,6 C45,7.104 44.216,8 43.25,8 L18.75,8 Z M43.25,38 C44.216,38 45,38.896 45,40 C45,41.104 44.216,42 43.25,42 L18.75,42 C17.784,42 17,41.104 17,40 C17,38.896 17.784,38 18.75,38 L43.25,38 Z M43.25,21 C44.216,21 45,21.896 45,23 C45,24.104 44.216,25 43.25,25 L18.75,25 C17.784,25 17,24.104 17,23 C17,21.896 17.784,21 18.75,21 L43.25,21 Z M0.831392597,6.20269385 C-0.1547105,5.18589639 -0.178846449,4.20186673 0.318086933,3.66747656 C0.711470144,3.24444175 1.44600605,3.05991075 2.18582375,3.66747656 C3.30207538,4.58418392 4.17653549,5.36000356 4.8092041,5.99493548 L7.38061523,3.44464251 C8.41023763,2.41400286 9.34063721,1.51338844 10.171814,0.742799247 C11.4185791,-0.413084543 12.023557,0.0031431791 12.5869468,0.500545408 C13.1503366,0.997947637 12.846995,2.03926695 12.208252,2.83020159 C11.8052693,3.3292019 9.60437023,5.55490231 5.60555482,9.50730282 C5.21818642,9.89017497 4.59565934,9.89265526 4.20525239,9.51288193 L4.20528117,9.51285235 C2.27774321,7.63781529 1.15311369,6.53442913 0.831392597,6.20269385 Z M0.831392597,23.2026938 C-0.1547105,22.1858964 -0.178846449,21.2018667 0.318086933,20.6674766 C0.711470144,20.2444417 1.44600605,20.0599107 2.18582375,20.6674766 C3.30207538,21.5841839 4.17653549,22.3600036 4.8092041,22.9949355 L7.38061523,20.4446425 C8.41023763,19.4140029 9.34063721,18.5133884 10.171814,17.7427992 C11.4185791,16.5869155 12.023557,17.0031432 12.5869468,17.5005454 C13.1503366,17.9979476 12.846995,19.0392669 12.208252,19.8302016 C11.8052693,20.3292019 9.60437023,22.5549023 5.60555482,26.5073028 C5.21818642,26.890175 4.59565934,26.8926553 4.20525239,26.5128819 L4.20528117,26.5128523 C2.27774321,24.6378153 1.15311369,23.5344291 0.831392597,23.2026938 Z M0.831392597,40.2026938 C-0.1547105,39.1858964 -0.178846449,38.2018667 0.318086933,37.6674766 C0.711470144,37.2444417 1.44600605,37.0599107 2.18582375,37.6674766 C3.30207538,38.5841839 4.17653549,39.3600036 4.8092041,39.9949355 L7.38061523,37.4446425 C8.41023763,36.4140029 9.34063721,35.5133884 10.171814,34.7427992 C11.4185791,33.5869155 12.023557,34.0031432 12.5869468,34.5005454 C13.1503366,34.9979476 12.846995,36.0392669 12.208252,36.8302016 C11.8052693,37.3292019 9.60437023,39.5549023 5.60555482,43.5073028 C5.21818642,43.890175 4.59565934,43.8926553 4.20525239,43.5128819 L4.20528117,43.5128523 C2.27774321,41.6378153 1.15311369,40.5344291 0.831392597,40.2026938 Z" id="Features" fill="#000000" fill-rule="nonzero"></path>
    </g>
</svg>