<?xml version="1.0" encoding="UTF-8"?>
<svg width="48px" height="48px" viewBox="0 0 48 48" version="1.1" xmlns="http://www.w3.org/2000/svg" xmlns:xlink="http://www.w3.org/1999/xlink">
    <!-- Generator: Sketch 53.2 (72643) - https://sketchapp.com -->
    <title>warning-outline</title>
    <desc>Created with Sketch.</desc>
    <g id="Page-1" stroke="none" stroke-width="1" fill="none" fill-rule="evenodd">
        <g id="warning-outline" fill="#000000" fill-rule="nonzero">
            <path d="M47.0904341,39.7954822 C49.1350588,43.8724138 47.6454037,47.075917 43.361428,47.075917 L4.44540365,47.075917 C0.356154158,47.075917 -1.13350101,43.861325 0.911123732,39.7954822 L21.0166004,2.30684334 C22.6912454,-0.69493594 25.3005761,-0.69493594 26.9752211,2.30684334 L47.0904341,39.7954822 Z M42.1342115,43.3832828 C43.9944369,43.3832828 44.6765196,41.8241348 43.8349004,40.0713671 L25.1972134,5.38297272 C24.5152193,4.21106407 23.4965244,4.21106407 22.9916061,5.38297272 L4.35391904,40.0713671 C3.33522417,41.8241348 4.01730683,43.3832828 5.87753225,43.3832828 L42.1342115,43.3832828 Z M24.099,40 C23.568,40 23.0595,39.79 22.6815,39.4195 C22.3095,39.0385 22.0995,38.518 22.0995,37.999 C22.0995,37.4785 22.3095,36.958 22.6815,36.5785 C23.439,35.839 24.7695,35.839 25.509,36.5785 C25.89,36.9595 26.1,37.468 26.1,37.999 C26.1,38.53 25.89,39.0385 25.5195,39.409 C25.1385,39.79 24.63,40 24.099,40 Z M24.1005,32 C22.9965,32 22.101,31.1045 22.101,29.999 L22.101,18.9995 C22.101,17.897 22.9965,17 24.1005,17 C25.2045,17 26.1,17.897 26.1,19.001 L26.1,30.0005 C26.1,31.1045 25.2045,32 24.1005,32 Z" id="Combined-Shape"></path>
        </g>
    </g>
</svg>