<?xml version="1.0" encoding="UTF-8"?>
<svg width="44px" height="49px" viewBox="0 0 44 49" version="1.1" xmlns="http://www.w3.org/2000/svg" xmlns:xlink="http://www.w3.org/1999/xlink">
    <!-- Generator: Sketch 53 (72520) - https://sketchapp.com -->
    <title>aci</title>
    <desc>Created with Sketch.</desc>
    <g id="Page-1" stroke="none" stroke-width="1" fill="none" fill-rule="evenodd">
        <path d="M14.6697211,13.7110492 L5.62767123,6.83554006 L14.6697211,0 L14.6697211,4.55813953 L41.7394063,4.55811965 C42.9869691,4.55811965 43.9983187,5.56946917 43.9983187,6.81703201 C43.9983187,6.8175495 43.9983185,6.81806698 43.9983181,6.81858447 C43.9837202,28.0593416 43.9842481,39.2755556 43.9999017,40.4672264 C44.0242016,42.317114 39.5337153,42.317114 39.5337153,40.4672264 L39.5337153,9.11859746 L14.6697211,9.11859746 M29.3302789,35.2889508 L38.3723288,42.1644599 L29.3302789,49 L29.3302789,44.4418605 L2.2605937,44.4418803 C1.01303085,44.4418803 0.00168134067,43.4305308 0.00168134067,42.182968 C0.00168134067,42.1824505 0.00168151849,42.181933 0.00168187414,42.1814155 C0.0162797893,20.9406584 0.0157519207,9.72444442 9.82682171e-05,8.53277362 C-0.0242016463,6.68288597 4.46628468,6.68288597 4.46628468,8.53277362 L4.46628468,39.8814025 L29.3302789,39.8814025" id="aci" fill="#000000" fill-rule="nonzero"></path>
    </g>
</svg>