
<svg xmlns="http://www.w3.org/2000/svg" viewBox="0 0 108.205 85.429957"><g transform="translate(-.579 -2.302)" stroke-miterlimit="10"><ellipse cx="100.936" cy="56.61" rx="7.348" ry="11.132" fill="#ccc" stroke="#010202"/><path d="M8.392 46.427c-4.039 0-7.313 4.095-7.313 9.156 0 5.061 3.274 9.156 7.313 9.156s7.313-4.095 7.313-9.156c0-5.061-3.274-9.156-7.313-9.156zm-.344 2.156c3.3 0 6 2.867 6 6.406 0 3.539-2.7 6.406-6 6.406s-5.969-2.867-5.969-6.406c0-3.539 2.668-6.406 5.969-6.406z" fill="#848484" fill-rule="evenodd" stroke="#010202"/><path d="M15.121 56.229c0-.602.487-1.088 1.087-1.088h4.043c.6 0 1.087.486 1.087 1.088 0 .6-.487 1.086-1.087 1.086h-4.043c-.6 0-1.087-.486-1.087-1.086z" fill="#848484" stroke="#010202"/><rect width="2.049" height="18.188" x="79.174" y="16.159" stroke="#000"/><rect width="2.049" height="18.189" x="31.626" y="17.081" stroke="#000"/><circle cx="80.196" cy="11.623" r="6.382" fill="#48ad3b" stroke="#010202"/><circle cx="32.649" cy="12.546" r="6.381" fill="#e52622" stroke="#010202"/><path d="M20.349 35.425c-2.77 7.075-6.153 33.224 0 43.376 6.152 10.152 62.452 12.613 71.682-.922 3.998-7.691 7.996-40.302-2.463-45.531-6.834-3.417-66.451-3.999-69.219 3.077z" fill="#ccc" stroke="#010202"/><path d="M21.42 43.138s-6.038 18.976 0 23.164c6.037 4.184 63.224 4.693 68.906 0 5.684-4.695 5.684-14.996 0-21.388-5.685-6.395-68.906-1.776-68.906-1.776z" fill="#010202" stroke="#010202"/><circle cx="39.281" cy="55.606" r="10.694" fill="#fff" stroke="#28a0c6" stroke-width="2"/><circle cx="39.28" cy="55.784" r="7.07" fill="#fff" stroke="#28a0c6"/><circle cx="39.279" cy="55.784" r="3.458" fill="#28a0c6" stroke="#fff"/><circle cx="74.444" cy="55.606" r="10.694" fill="#fff" stroke="#28a0c6" stroke-width="2"/><circle cx="74.445" cy="55.784" r="7.07" fill="#fff" stroke="#28a0c6"/><circle cx="74.445" cy="55.784" r="3.459" fill="#28a0c6" stroke="#fff"/><polyline points="40.846,12.966 43.975,12.966 44.653,6.813 48.498,20.272 51.266,8.89 52.651,13.89 55.412,2.802 59.588,23.349 62.65,11.044 65.035,15.043 68.496,11.623 72.307,11.623" stroke="#000" fill="none"/></g></svg>
